{
	"patcher" : 	{
		"fileversion" : 1,
		"appversion" : 		{
			"major" : 9,
			"minor" : 0,
			"revision" : 2,
			"architecture" : "x64",
			"modernui" : 1
		}
,
		"classnamespace" : "dsp.gen",
		"rect" : [ 34.0, 131.0, 1319.0, 885.0 ],
		"gridsize" : [ 15.0, 15.0 ],
		"boxes" : [ 			{
				"box" : 				{
					"id" : "obj-3",
					"maxclass" : "newobj",
					"numinlets" : 1,
					"numoutlets" : 1,
					"outlettype" : [ "" ],
					"patching_rect" : [ 50.0, 385.0, 61.0, 22.0 ],
					"text" : "fixdenorm"
				}

			}
, 			{
				"box" : 				{
					"id" : "obj-7",
					"maxclass" : "newobj",
					"numinlets" : 0,
					"numoutlets" : 1,
					"outlettype" : [ "" ],
					"patching_rect" : [ 371.0, 14.0, 28.0, 22.0 ],
					"text" : "in 2"
				}

			}
, 			{
				"box" : 				{
					"code" : "/* Diode Ring Modulator implementation in gen~\n * Inputs:\n * in1: Audio input signal\n * in2: Carrier/modulator signal\n * thresh: Diode threshold voltage (default 1.0V)\n * curve: Diode curve shaping (default 1.0)\n */\n\n\n// Diode modeling function\nfdiode(x, curve, thresh) {\n    // Simplified Shockley diode equation\n    //return x * (1 - exp(-curve * abs(x + thresh))) * sign(x + thresh);\r\n return max(0, x + thresh) * (1 - exp(-curve * max(0, x + thresh)));\n}\n\n// Ring modulator circuit simulation\nringround(input, carrier, curve, thresh) {\n    // Model the four diodes in the ring\n    d1 = fdiode(input + carrier, curve, thresh);\n    d2 = fdiode(input - carrier, curve, thresh);\n    d3 = fdiode(-input + carrier, curve, thresh);\n    d4 = fdiode(-input - carrier, curve, thresh);\n    \n    // Combine outputs according to ring topology\n    return (d1 - d2 + d3 - d4) * 0.25;\n}\n\r\nParam diodeCurve(0.5);   // Diode curve shaping parameter\r\nParam diodeThresh(0.5);  // Diode threshold voltage\r\n\n// Process inputs\nout1 = ringround(in1, in2, diodeCurve, diodeThresh);",
					"fontface" : 0,
					"fontname" : "<Monospaced>",
					"fontsize" : 12.0,
					"id" : "obj-5",
					"maxclass" : "codebox",
					"numinlets" : 2,
					"numoutlets" : 1,
					"outlettype" : [ "" ],
					"patching_rect" : [ 50.0, 103.0, 523.0, 265.0 ]
				}

			}
, 			{
				"box" : 				{
					"id" : "obj-1",
					"maxclass" : "newobj",
					"numinlets" : 0,
					"numoutlets" : 1,
					"outlettype" : [ "" ],
					"patching_rect" : [ 50.0, 14.0, 28.0, 22.0 ],
					"text" : "in 1"
				}

			}
, 			{
				"box" : 				{
					"id" : "obj-4",
					"maxclass" : "newobj",
					"numinlets" : 1,
					"numoutlets" : 0,
					"patching_rect" : [ 50.0, 418.0, 35.0, 22.0 ],
					"text" : "out 1"
				}

			}
 ],
		"lines" : [ 			{
				"patchline" : 				{
					"destination" : [ "obj-5", 0 ],
					"source" : [ "obj-1", 0 ]
				}

			}
, 			{
				"patchline" : 				{
					"destination" : [ "obj-4", 0 ],
					"source" : [ "obj-3", 0 ]
				}

			}
, 			{
				"patchline" : 				{
					"destination" : [ "obj-3", 0 ],
					"source" : [ "obj-5", 0 ]
				}

			}
, 			{
				"patchline" : 				{
					"destination" : [ "obj-5", 1 ],
					"source" : [ "obj-7", 0 ]
				}

			}
 ],
		"originid" : "pat-717"
	}

}
